# xmcd
# 
# Track frame offsets:
#     150
#     28067
#     46787
#     65510
#     86852
#     103477
#     119452
#     142090
#     157145
#     177107
# 
# Disc length: 2651
# 
# Revision: 3
# Processed by: cddbd v1.5.2PL0 Copyright (c) Steve Scherf et al.
# Submitted via: fre:ac v1.0.31
# 
DISCID=930a590a
DTITLE=Various Artist - ASCD068-Doan Khuc Cuoi Cho Em
DYEAR=1994
DGENRE=Vietnamese
TTITLE0=Don Ho - Trai tim mua dong
TTITLE1=Don Ho, Lam Thuy Van - Co ua
TTITLE2=Don Ho, Nini - Nguoi me buon
TTITLE3=Nini - Xa anh ky niem
TTITLE4=Don Ho, Lam Thuy Van - Chieu mot minh qua pho
TTITLE5=Don Ho, Lam Thuy Van - Bay gio con yeu
TTITLE6=Lam Thuy Van - Hoi nguoi tinh
TTITLE7=Don Ho, Nini - Bien
TTITLE8=Don Ho, Nini - Bien mong
TTITLE9=Don Ho - Doan khuc cuoi cho em
EXTD=
EXTT0=
EXTT1=
EXTT2=
EXTT3=
EXTT4=
EXTT5=
EXTT6=
EXTT7=
EXTT8=
EXTT9=
PLAYORDER=
